<svg aria-hidden="true" style="position: absolute; width: 0; height: 0; overflow: hidden;" version="1.1" xmlns="http://www.w3.org/2000/svg" xmlns:xlink="http://www.w3.org/1999/xlink">
<defs>
<symbol id="arrow" viewBox="0 0 24 24">
<path d="M7.406 8.578l4.594 4.594 4.594-4.594 1.406 1.406-6 6-6-6z"></path>
</symbol>
<symbol id="github" viewBox="0 0 32 32">
<path d="M16 0.395c-8.836 0-16 7.163-16 16 0 7.069 4.585 13.067 10.942 15.182 0.8 0.148 1.094-0.347 1.094-0.77 0-0.381-0.015-1.642-0.022-2.979-4.452 0.968-5.391-1.888-5.391-1.888-0.728-1.849-1.776-2.341-1.776-2.341-1.452-0.993 0.11-0.973 0.11-0.973 1.606 0.113 2.452 1.649 2.452 1.649 1.427 2.446 3.743 1.739 4.656 1.33 0.143-1.034 0.558-1.74 1.016-2.14-3.554-0.404-7.29-1.777-7.29-7.907 0-1.747 0.625-3.174 1.649-4.295-0.166-0.403-0.714-2.030 0.155-4.234 0 0 1.344-0.43 4.401 1.64 1.276-0.355 2.645-0.532 4.005-0.539 1.359 0.006 2.729 0.184 4.008 0.539 3.054-2.070 4.395-1.64 4.395-1.64 0.871 2.204 0.323 3.831 0.157 4.234 1.026 1.12 1.647 2.548 1.647 4.295 0 6.145-3.743 7.498-7.306 7.895 0.574 0.497 1.085 1.47 1.085 2.963 0 2.141-0.019 3.864-0.019 4.391 0 0.426 0.288 0.925 1.099 0.768 6.354-2.118 10.933-8.113 10.933-15.18 0-8.837-7.164-16-16-16z"></path>
</symbol>
<symbol id="linkedin" viewBox="0 0 20 20">
<path d="M10 0.4c-5.302 0-9.6 4.298-9.6 9.6s4.298 9.6 9.6 9.6 9.6-4.298 9.6-9.6-4.298-9.6-9.6-9.6zM7.65 13.979h-1.944v-6.256h1.944v6.256zM6.666 6.955c-0.614 0-1.011-0.435-1.011-0.973 0-0.549 0.409-0.971 1.036-0.971s1.011 0.422 1.023 0.971c0 0.538-0.396 0.973-1.048 0.973zM14.75 13.979h-1.944v-3.467c0-0.807-0.282-1.355-0.985-1.355-0.537 0-0.856 0.371-0.997 0.728-0.052 0.127-0.065 0.307-0.065 0.486v3.607h-1.945v-4.26c0-0.781-0.025-1.434-0.051-1.996h1.689l0.089 0.869h0.039c0.256-0.408 0.883-1.010 1.932-1.010 1.279 0 2.238 0.857 2.238 2.699v3.699z"></path>
</symbol>
<symbol id="steam" viewBox="0 0 32 32">
<path d="M15.972 0c-8.401 0-15.291 6.48-15.943 14.716l8.576 3.544c0.727-0.495 1.604-0.787 2.549-0.787 0.084 0 0.167 0.005 0.251 0.008l3.815-5.523v-0.079c0-3.327 2.704-6.032 6.032-6.032 3.325 0 6.032 2.708 6.032 6.036s-2.707 6.033-6.032 6.033h-0.14l-5.435 3.881c0 0.069 0.005 0.14 0.005 0.212 0 2.5-2.020 4.528-4.52 4.528-2.18 0-4.021-1.564-4.441-3.636l-6.14-2.543c1.901 6.716 8.067 11.64 15.391 11.64 8.836 0 15.999-7.164 15.999-16s-7.164-16-15.999-16zM10.053 24.28l-1.964-0.813c0.349 0.724 0.952 1.332 1.752 1.667 1.729 0.719 3.724-0.101 4.443-1.833 0.351-0.84 0.352-1.759 0.007-2.599s-1-1.495-1.836-1.844c-0.832-0.347-1.72-0.332-2.504-0.040l2.031 0.84c1.275 0.533 1.879 2 1.345 3.273-0.529 1.276-1.996 1.88-3.272 1.349zM25.273 11.876c0-2.216-1.804-4.020-4.020-4.020-2.22 0-4.020 1.804-4.020 4.020 0 2.22 1.8 4.020 4.020 4.020 2.217 0 4.020-1.8 4.020-4.020zM18.243 11.869c0-1.669 1.351-3.021 3.020-3.021 1.665 0 3.021 1.352 3.021 3.021 0 1.668-1.356 3.020-3.021 3.020-1.671 0-3.020-1.352-3.020-3.020z"></path>
</symbol>
</defs>
</svg>
